<svg width="146" height="28" viewBox="0 0 146 28" fill="none" xmlns="http://www.w3.org/2000/svg"><path d="M2.85429 6.61809H20.5611L25.462 15.2144C25.462 15.2144 21.1253 23.4332 14.0688 27.9999C14.0174 28.0256 8.14088 24.0475 4.95837 19.6079C5.00979 19.5822 8.75654 19.6079 8.75654 19.6079C8.75654 19.6079 13.2732 24.1246 14.0688 24.2017C14.0756 24.1936 20.2309 19.0356 21.9033 15.2144C21.9412 15.2184 18.9617 9.94538 18.9617 9.94538L2.85564 9.86825V6.61809H2.85429Z" fill="#ffffff"></path><path fill-rule="evenodd" clip-rule="evenodd" d="M27.8543 0C28.1154 7.26348 26.715 11.7084 26.715 11.7084L24.4675 7.79255L24.6948 3.24881C24.6948 3.24881 3.23314 3.2001 3.20067 3.24881C3.20067 10.2336 5.02466 13.6258 5.02466 13.6258H10.6235C11.2409 12.3279 12.5643 11.4307 14.0972 11.4307C16.2206 11.4307 17.9419 13.152 17.9419 15.2753C17.9419 17.3987 16.2206 19.12 14.0972 19.12C12.6301 19.12 11.3549 18.2982 10.7068 17.0898H3.20067C-0.121211 12.5623 0.000568276 0 0.000568276 0C0.000568276 0 27.8543 0.0324746 27.8543 0ZM12.4401 15.2753C12.4401 14.3601 13.182 13.6182 14.0972 13.6182C15.0124 13.6182 15.7544 14.3601 15.7544 15.2753C15.7544 16.1905 15.0124 16.9325 14.0972 16.9325C13.182 16.9325 12.4401 16.1905 12.4401 15.2753Z" fill="#ffffff"></path><path d="M40.8147 10.0138C42.5295 10.0138 43.7822 10.4798 44.5743 11.4114C45.3663 12.3435 45.7621 14.0085 45.7621 16.4063C45.7621 18.8041 45.3048 20.4617 44.3906 21.3768C43.4759 22.2924 41.9003 22.75 39.6633 22.75C38.9612 22.75 37.6791 22.6687 35.8175 22.5071L34.8867 22.4099V5.4445H38.1691V10.6701C39.214 10.2327 40.0955 10.0138 40.8147 10.0138ZM39.6633 19.833C40.7569 19.833 41.4922 19.5699 41.8676 19.0433C42.243 18.5166 42.431 17.5728 42.431 16.2118C42.431 14.0245 41.745 12.9308 40.3734 12.9308C39.7201 12.9308 39.0999 13.0121 38.5119 13.1736L38.1691 13.2464V19.7363C38.92 19.8011 39.4186 19.8335 39.6633 19.8335V19.833Z" fill="#ffffff"></path><path d="M48.2117 8.75001V5.4445H51.4941V8.75001H48.2117ZM48.2117 22.4583V10.3055H51.4941V22.4583H48.2117Z" fill="#ffffff"></path><path d="M61.3155 13.0764H58.3025V18.0591C58.3025 18.5453 58.3148 18.8897 58.3394 19.0922C58.3641 19.2952 58.4535 19.469 58.6088 19.6146C58.7636 19.7602 59.0046 19.8335 59.3313 19.8335L61.1928 19.7846L61.3396 22.3854C60.2454 22.6283 59.4127 22.75 58.8412 22.75C57.3717 22.75 56.3675 22.4221 55.8282 21.7658C55.2895 21.1095 55.0201 19.8983 55.0201 18.1319V13.0764H53.5752V10.3055H55.0201V6.9272H58.3025V10.3055H61.3155V13.0764Z" fill="#ffffff"></path><path d="M72.2396 13.3437C70.2147 13.0849 68.7981 12.9547 67.99 12.9547C67.1819 12.9547 66.6592 13.0275 66.4224 13.1736C66.1857 13.3192 66.0674 13.5504 66.0674 13.8666C66.0674 14.1828 66.2264 14.4012 66.5451 14.5229C66.8637 14.6446 67.6799 14.8232 68.9947 15.0576C70.3089 15.2924 71.244 15.6772 71.7993 16.2118C72.3542 16.7464 72.6321 17.6137 72.6321 18.8126C72.6321 21.4374 70.9912 22.75 67.7088 22.75C66.6313 22.75 65.3246 22.6044 63.7897 22.3126L63.0057 22.167L63.1037 19.445C65.128 19.7044 66.5365 19.834 67.3286 19.834C68.1207 19.834 68.6594 19.7575 68.9454 19.6029C69.2309 19.4493 69.3738 19.2181 69.3738 18.9104C69.3738 18.6027 69.2228 18.3758 68.9208 18.2297C68.6182 18.084 67.8347 17.9055 66.5692 17.695C65.3037 17.4846 64.3606 17.128 63.7399 16.6258C63.1192 16.1236 62.8091 15.2281 62.8091 13.94C62.8091 12.6518 63.2499 11.6798 64.1319 11.0235C65.0134 10.3672 66.1482 10.0393 67.5364 10.0393C68.4998 10.0393 69.8141 10.1934 71.4802 10.5011L72.2883 10.6467L72.239 13.3448L72.2396 13.3437Z" fill="#ffffff"></path><path d="M81.0568 22.7256C78.6072 22.7256 76.9454 22.0533 76.0725 20.7083C75.199 19.3637 74.762 17.1519 74.762 14.0728C74.762 10.9937 75.2027 8.80262 76.0848 7.49796C76.9668 6.19383 78.6238 5.54123 81.0568 5.54123C82.5098 5.54123 84.11 5.74423 85.8575 6.14865L85.7595 8.33603C84.2899 8.07722 82.8204 7.94702 81.3508 7.94702C79.8813 7.94702 78.8852 8.38066 78.3625 9.24742C77.8398 10.1142 77.5784 11.743 77.5784 14.1329C77.5784 16.5227 77.8312 18.1515 78.3378 19.0183C78.8439 19.8856 79.832 20.3187 81.3016 20.3187C82.7711 20.3187 84.2567 20.197 85.7595 19.9541L85.8328 22.1904C84.1507 22.5465 82.5585 22.725 81.0563 22.725L81.0568 22.7256Z" fill="#ffffff"></path><path d="M88.4297 22.4582V10.3055H91.0753V11.7637C92.4629 10.8725 93.851 10.2975 95.2392 10.0382V12.6874C93.8344 12.9632 92.6343 13.3192 91.6387 13.7566L91.0999 13.9756V22.4582H88.4302H88.4297Z" fill="#ffffff"></path><path d="M104.693 10.3055H107.339V22.4582H104.693V21.7047C103.501 22.3854 102.399 22.7256 101.387 22.7256C99.7046 22.7256 98.5778 22.276 98.0064 21.3768C97.4344 20.4776 97.1489 18.9019 97.1489 16.6492V10.3055H99.8186V16.6736C99.8186 18.1319 99.9413 19.1124 100.186 19.6146C100.431 20.1168 101.002 20.3681 101.9 20.3681C102.798 20.3681 103.591 20.2066 104.325 19.8819L104.693 19.7363V10.3055H104.693Z" fill="#ffffff"></path><path d="M113.242 22.4582H110.572V10.3055H113.217V11.0591C114.409 10.3783 115.535 10.0382 116.597 10.0382C118.23 10.0382 119.345 10.4963 119.941 11.4114C120.537 12.3271 120.835 13.8379 120.835 15.9445V22.4582H118.19V16.0173C118.19 14.7047 118.047 13.7731 117.761 13.222C117.475 12.6714 116.891 12.3956 116.01 12.3956C115.177 12.3956 114.377 12.5577 113.61 12.8819L113.242 13.0275V22.4582H113.242Z" fill="#ffffff"></path><path d="M128.526 10.0382C129.391 10.0382 130.412 10.1519 131.587 10.3783L132.199 10.5L132.101 12.5901C130.811 12.4605 129.856 12.3956 129.236 12.3956C127.994 12.3956 127.162 12.6714 126.737 13.222C126.313 13.7731 126.101 14.8104 126.101 16.333C126.101 17.8555 126.305 18.9094 126.713 19.4929C127.121 20.0764 127.97 20.3676 129.26 20.3676L132.126 20.1731L132.199 22.2877C130.55 22.5794 129.309 22.725 128.476 22.725C126.615 22.725 125.304 22.2265 124.545 21.2301C123.785 20.2337 123.406 18.6011 123.406 16.3324C123.406 14.0638 123.806 12.4477 124.606 11.4837C125.406 10.5197 126.712 10.0377 128.525 10.0377L128.526 10.0382Z" fill="#ffffff"></path><path d="M137.441 22.4582H134.771V5.25H137.441V10.9374C138.649 10.3379 139.768 10.0382 140.797 10.0382C142.429 10.0382 143.544 10.4963 144.14 11.4114C144.736 12.3271 145.034 13.8379 145.034 15.9445V22.4582H142.364V16.0173C142.364 14.7047 142.225 13.7731 141.947 13.222C141.67 12.6714 141.081 12.3956 140.184 12.3956C139.4 12.3956 138.616 12.5253 137.832 12.7846L137.44 12.9302V22.4582H137.441Z" fill="#ffffff"></path></svg>