<svg class="MuiSvgIcon-root MuiSvgIcon-fontSizeMedium css-1ydoi8a" focusable="false" aria-hidden="true" viewBox="0 0 248 48"><path d="M64.7801 14.0001H61V33.6608H64.7801V14.0001Z"></path><path d="M84.6421 19.3458C82.7633 19.3458 81.041 20.1287 80.0121 21.7615C79.2516 20.1734 77.7083 19.3458 75.7176 19.3458C74.0401 19.3458 72.4744 20.0839 71.5126 21.6049V19.6142H67.8667V33.6608H71.5126V25.8547C71.5126 23.8864 72.8546 22.4325 74.5321 22.4325H74.7558C76.2544 22.4325 76.9478 23.3719 76.9478 25.2508V33.6832H80.5937V25.8771C80.5937 23.9087 81.9133 22.4549 83.5909 22.4549H83.8145C85.3131 22.4549 85.9841 23.3943 85.9841 25.2731V33.7056H89.63V24.8705C89.63 23.2154 89.2274 21.8733 88.4445 20.8892C87.617 19.8379 86.3644 19.3458 84.6421 19.3458Z"></path><path d="M108.888 19.3458C107.009 19.3458 105.287 20.1287 104.258 21.7615C103.498 20.1734 101.954 19.3458 99.9636 19.3458C98.2861 19.3458 96.7204 20.0839 95.7586 21.6049V19.6142H92.1351V33.6608H95.7809V25.8547C95.7809 23.8864 97.123 22.4325 98.8005 22.4325H99.0242C100.523 22.4325 101.216 23.3719 101.216 25.2508V33.6832H104.862V25.8771C104.862 23.9087 106.182 22.4549 107.859 22.4549H108.083C109.581 22.4549 110.253 23.3943 110.253 25.2731V33.7056H113.898V24.8705C113.898 23.2154 113.496 21.8733 112.713 20.8892C111.885 19.8379 110.633 19.3458 108.888 19.3458Z"></path><path d="M136.534 29.0308V22.5667H139.665V19.6142H136.534V15.0513H132.888V19.6142H125.104V27.4203C125.104 29.3886 123.807 30.9767 122.219 30.9767H121.995C120.676 30.9767 119.915 29.9926 119.915 28.1808V19.6142H116.269V28.6058C116.269 30.2386 116.672 31.5359 117.455 32.4753C118.238 33.4371 119.423 33.9292 121.011 33.9292C122.756 33.9292 124.254 33.0345 125.104 31.603V33.6608H128.75V22.5667H132.888V30.0149C132.888 32.3859 134.163 33.6608 136.534 33.6608H140.09V30.5741H138.077C136.802 30.5965 136.534 30.3281 136.534 29.0308Z"></path><path d="M153.13 24.4008C153.13 21.1576 150.76 19.3458 147.225 19.3458C143.781 19.3458 141.477 21.3141 141.186 23.9758H144.855C144.944 23.1259 145.794 22.2983 147.114 22.2983H147.337C148.679 22.2983 149.596 23.2601 149.596 24.535V24.8705L146.062 25.1837C144.541 25.2955 143.311 25.7428 142.349 26.5257C141.388 27.2862 140.918 28.3822 140.918 29.8137C140.873 32.2741 142.998 33.974 145.526 33.9516C147.315 33.9516 148.814 33.1911 149.686 31.9609C149.708 32.699 149.775 33.2806 149.842 33.6832H153.265C153.175 33.0345 153.13 32.0057 153.13 30.5965V24.4008ZM149.574 27.9348C149.574 29.7018 148.098 30.9991 146.443 30.9991H146.219C145.212 30.9991 144.474 30.44 144.474 29.5676C144.474 29.0308 144.676 28.6282 145.101 28.3374C145.503 28.0467 145.995 27.8901 146.532 27.8454L149.574 27.5322V27.9348Z"></path><path d="M163.33 19.3458C161.451 19.3458 159.885 20.4194 159.281 21.4483V14H155.636V33.6608H159.281V31.8267C159.885 32.8555 161.451 33.9292 163.33 33.9292C167.266 33.9963 169.615 30.4622 169.57 26.6375C169.615 22.8127 167.266 19.2787 163.33 19.3458ZM162.726 30.9991H162.502C160.825 31.0438 159.259 29.2321 159.304 26.6598C159.281 24.0876 160.847 22.2759 162.502 22.3206H162.726C164.56 22.3206 165.924 23.9981 165.924 26.6375C165.924 29.2544 164.538 30.9991 162.726 30.9991Z"></path><path d="M175.05 14H171.404V33.6608H175.05V14Z"></path><path d="M183.595 19.3458C179.479 19.3011 176.862 22.4549 176.907 26.6375C176.84 31.111 180.061 33.9963 183.595 33.9292C187.039 33.9292 189.253 32.0057 189.947 29.2098H186.323C186.055 30.2387 185.16 30.9768 183.863 30.9768H183.639C182.118 30.9768 180.597 29.6571 180.463 27.7783H189.947C189.992 27.1744 189.992 26.727 189.992 26.4586C190.036 22.3878 187.71 19.3235 183.595 19.3458ZM180.463 24.9824C180.553 23.3272 181.828 22.2983 183.349 22.2983H183.572C185.116 22.2983 186.39 23.3272 186.458 24.9824H180.463Z"></path><path d="M231.098 28.0002V27.1162C226.808 27.5322 224.078 28.1822 224.078 30.1062C224.078 31.4322 225.092 32.3162 226.782 32.3162C228.992 32.3162 231.098 31.3022 231.098 28.0002ZM226.262 34.1882C223.636 34.1882 221.452 32.7322 221.452 30.1582C221.452 26.8562 225.196 25.8682 230.916 25.2442V24.9062C230.916 22.3322 229.512 21.5002 227.744 21.5002C225.768 21.5002 224.65 22.5402 224.546 24.2822H222.102C222.31 21.2662 225.014 19.5762 227.718 19.5762C231.644 19.5762 233.308 21.3702 233.282 25.3482L233.256 28.5722C233.23 30.9382 233.334 32.5242 233.62 33.8502H231.228C231.15 33.3302 231.072 32.7582 231.046 31.9262C230.188 33.3822 228.758 34.1882 226.262 34.1882Z"></path><path d="M218.531 15V33.85H216.165V15H218.531Z"></path><path d="M200 15H205.902C210.504 15 213.728 16.04 213.728 20.694C213.728 25.374 210.504 26.388 205.902 26.388H202.652V33.85H200V15ZM206.11 17.236H202.652V24.074H206.11C208.892 24.074 211.024 23.788 211.024 20.694C211.024 17.626 208.892 17.236 206.11 17.236Z"></path><path d="M244.846 19.8621H247.316L242.324 34.4481C241.284 37.4641 240.608 38.4001 237.462 38.4001H236.24V36.4241H237.202C238.762 36.4241 239.516 36.3201 240.14 34.1361L240.244 33.8501L235.2 19.8621H237.826L241.388 30.6521L244.846 19.8621Z"></path><path fill-rule="evenodd" d="M24 0C10.7362 0 0 10.7363 0 24C0 37.2637 10.7362 48 24 48C37.2637 48 48 37.2637 48 24C48 10.7363 37.2637 0 24 0ZM25.0498 10.2838C24.4239 9.92769 23.7549 9.90674 23.1075 10.221C22.4921 10.5094 21.9392 10.8384 21.2848 11.2277L21.2516 11.2475C21.4242 11.3523 21.5321 11.4151 21.64 11.478L21.6414 11.4787C24.1443 12.8821 26.6472 14.2854 29.1501 15.6679C29.6248 15.9402 29.8191 16.2754 29.8191 16.8201V25.6189C30.2383 25.3766 30.6484 25.1478 31.0492 24.9241C31.5148 24.6643 31.968 24.4114 32.4087 24.1524C32.4951 24.1105 32.5598 23.9639 32.5598 23.8591C32.5598 22.9505 32.5622 22.0443 32.5646 21.1388C32.5694 19.3301 32.5742 17.5246 32.5598 15.7097C32.5598 14.9346 32.2145 14.3061 31.5239 13.9081L31.5224 13.9072C29.3648 12.6924 27.2073 11.4777 25.0498 10.2838ZM22.4388 37.9057C22.4941 37.9352 22.5548 37.9676 22.6327 38C22.6327 37.0573 22.6327 36.1774 22.6543 35.2766C22.6543 35.0042 22.5464 34.8786 22.3306 34.7529C21.0034 34.0196 19.6763 33.276 18.3491 32.5323C17.0219 31.7886 15.6946 31.0448 14.3674 30.3116C13.9573 30.0811 13.7631 29.7878 13.7631 29.306C13.7847 27.5672 13.7847 25.8493 13.7631 24.1105C13.7631 23.6496 13.9573 23.3563 14.3674 23.1259C16.2979 22.0596 18.2413 20.9684 20.1777 19.8811C20.7523 19.5585 21.3262 19.2362 21.899 18.915C22.0285 18.8522 22.1364 18.7893 22.309 18.6846C21.4674 18.2237 20.6473 17.7628 19.8488 17.3019C19.633 17.1762 19.482 17.1972 19.2877 17.3019C16.9786 18.6008 14.6479 19.8997 12.3172 21.1985C11.4108 21.6804 11.0008 22.4136 11.0008 23.3982C11.0224 25.5979 11.0224 27.7976 11.0008 29.9973C10.9792 31.0238 11.4108 31.7571 12.3388 32.2808C14.5936 33.5174 16.8485 34.783 19.0966 36.0447C20.162 36.6426 21.2258 37.2397 22.2874 37.8324C22.3397 37.8527 22.3869 37.8779 22.4388 37.9057ZM22.0716 32.7417C22.2443 32.8464 22.3953 32.9302 22.6327 33.0559V30.3325C22.6327 30.0811 22.568 29.9345 22.3306 29.8088C21.7371 29.484 21.1437 29.1489 20.5502 28.8137C19.9567 28.4785 19.3633 28.1433 18.7698 27.8186C18.3598 27.5881 18.1871 27.2739 18.1871 26.813C18.2015 26.2691 18.1967 25.7345 18.1919 25.1968C18.1895 24.9268 18.1871 24.656 18.1871 24.3829V22.8954C18.0792 22.9373 18.0361 22.9583 17.9713 23.0002C17.216 23.4401 16.4391 23.8801 15.6622 24.299C15.468 24.3828 15.4464 24.5085 15.4464 24.6971C15.4464 25.1363 15.4488 25.5777 15.4512 26.02C15.456 26.9069 15.4608 27.7968 15.4464 28.6775C15.4248 28.9498 15.5111 29.0755 15.7485 29.2012C16.806 29.7878 17.8581 30.3797 18.9102 30.9715C19.9622 31.5633 21.0142 32.1551 22.0716 32.7417ZM18.9424 15.5841C19.3956 15.3327 19.7625 15.3327 20.2157 15.5841C21.4243 16.2824 22.6328 16.9621 23.8414 17.6418C24.4456 17.9817 25.0498 18.3215 25.654 18.6636C26.1106 18.9152 26.5671 19.1736 27.0358 19.4388C27.3868 19.6375 27.7445 19.84 28.1142 20.0463C28.1142 19.6985 28.1167 19.3579 28.1191 19.023C28.1239 18.3692 28.1285 17.7367 28.1142 17.1134C28.1142 17.0296 27.9847 16.9039 27.8768 16.841C26.6899 16.1706 25.4976 15.5055 24.3052 14.8403C23.1129 14.1752 21.9206 13.5101 20.7336 12.8397C19.9783 12.3997 19.1798 12.3997 18.4245 12.8187L12.1446 16.3382C11.7129 16.5687 11.3676 16.9248 11.195 17.3857C10.9796 17.9433 10.9935 18.5194 11.0079 19.114C11.0151 19.4131 11.0225 19.7169 11.0008 20.0254C11.0979 19.973 11.1734 19.9363 11.2382 19.9049C11.3029 19.8735 11.3569 19.8473 11.4108 19.8159C13.9357 18.4122 16.4391 17.0086 18.9424 15.5841ZM35.7753 32.197C36.4443 31.8199 36.8975 31.2962 36.9623 30.542C37.0153 29.9928 36.9959 29.4435 36.9753 28.8597C36.9708 28.7309 36.9662 28.6005 36.9623 28.468C36.8544 28.5099 36.8112 28.5309 36.7465 28.5728C34.8905 29.6098 33.0292 30.652 31.1679 31.6942C29.3065 32.7365 27.4452 33.7787 25.5893 34.8157C25.4166 34.9204 25.3735 35.0252 25.3735 35.2137V37.6858C25.3735 37.7234 25.3778 37.7654 25.3826 37.8115C25.3885 37.868 25.395 37.9308 25.395 38C25.5245 37.9372 25.6109 37.8953 25.7188 37.8324C26.118 37.6125 26.5172 37.3873 26.9164 37.1621C27.3157 36.9369 27.715 36.7116 28.1142 36.4917C29.9798 35.4327 31.8569 34.385 33.7286 33.3402C34.4119 32.9589 35.0944 32.578 35.7753 32.197ZM35.7537 27.2529C36.5091 26.8339 36.9838 26.2474 36.9838 25.3884C37.0054 22.9583 37.0054 20.5491 36.9838 18.1399C36.9838 17.5114 36.7033 16.9458 36.1638 16.5687C35.7226 16.2514 35.2443 15.9822 34.7382 15.6974C34.5759 15.6061 34.4108 15.5131 34.2431 15.4165V15.8983C34.2431 16.8263 34.2407 17.7566 34.2383 18.6877C34.2335 20.5522 34.2287 22.4198 34.2431 24.2781C34.2431 24.8018 34.0489 25.137 33.5741 25.3884C32.2577 26.1217 30.9359 26.8601 29.6141 27.5986C28.2922 28.3371 26.9704 29.0755 25.654 29.8088C25.4382 29.9135 25.3735 30.0392 25.3735 30.2697V32.6998C25.3735 32.7478 25.378 32.7914 25.3829 32.8386C25.3887 32.8945 25.395 32.9555 25.395 33.035C25.7184 32.8606 26.0218 32.6927 26.32 32.5276C26.5592 32.3953 26.795 32.2647 27.0352 32.1342C28.8039 31.1347 30.5807 30.1431 32.3606 29.1498C33.4908 28.519 34.6223 27.8876 35.7537 27.2529Z"></path></svg>