<svg xmlns="http://www.w3.org/2000/svg" width="136" height="37" viewBox="0 0 136 37" fill="none" style="&#10;"><path d="M11.4509 17.419H0.272949L12.0329 11.8995L17.4764 0.0473633L17.4892 11.3069C17.4935 14.6809 14.7889 17.4233 11.4466 17.4233L11.4509 17.419Z" fill="white"/><path d="M24.7268 17.419H35.9048L24.1448 11.8995L18.7013 0.0473633L18.6885 11.3069C18.6842 14.6809 21.3888 17.4233 24.7311 17.4233L24.7268 17.419Z" fill="white"/><path d="M24.7268 18.6762H35.9048L24.1448 24.1957L18.7013 36.0479L18.6885 24.7883C18.6842 21.4143 21.3888 18.6719 24.7311 18.6719L24.7268 18.6762Z" fill="white"/><path d="M11.4509 18.6762H0.272949L12.0329 24.1957L17.4764 36.0479L17.4892 24.7883C17.4935 21.4143 14.7889 18.6719 11.4466 18.6719L11.4509 18.6762Z" fill="white"/><path d="M55.3777 25.9226V29.634H42.03V6.02484H45.8687V25.9226H55.3777Z" fill="white"/><path d="M57.8743 21.8046V6.02484H61.7129V21.5711C61.7129 24.3351 63.2792 26.2946 66.7156 26.2946C70.152 26.2946 71.7226 24.3395 71.7226 21.5711V6.02484H75.5613V21.809C75.5613 26.9002 71.8253 30.0709 66.7199 30.0709C61.6145 30.0709 57.8785 26.9002 57.8785 21.809L57.8743 21.8046Z" fill="white"/><path d="M102.252 29.6297H98.4134V12.8031L91.3052 24.6725H90.8387L83.7305 12.7685V29.6297H79.8918V6.02484H84.0301L91.0698 17.8294L98.1437 6.02484H102.248V29.634L102.252 29.6297Z" fill="white"/><path d="M110.636 6.02484V29.634H106.797V6.02484H110.636Z" fill="white"/><path d="M129.49 24.8772H119.549L117.914 29.631H113.742L122.215 6.02185H126.82L135.263 29.631H131.125L129.49 24.8772ZM128.223 21.235L124.522 10.5767L120.82 21.235H128.228H128.223Z" fill="white"/></svg>